<svg id="Layer_1" data-name="Layer 1" xmlns="http://www.w3.org/2000/svg" viewBox="0 0 475.85 512"><defs><style>.cls-1{fill:none;stroke:#000;stroke-miterlimit:10;stroke-width:30px;}</style></defs><path class="cls-1" d="M112.19,434.73c-46.33-95-73.9-152.29-73.9-153.71,0-2.32,2.83-2,30.67,3.46,49,9.61,75.13,12.33,118.73,12.34q86.55,0,141.19-27.48c19.31-9.72,30.93-18.33,40.44-30C381,225,384.8,215.06,384.93,198.4c.12-15.85-2-24.21-11.19-43.61-3.63-7.66-6.82-16.46-7.12-19.55-.47-5-.07-5.68,3.59-6.1,8-.95,47.51,37.4,62.06,60.24,25.08,39.38,27.11,82,5.88,123.19-13,25.32-27.45,42.83-51.57,62.74-40.1,33.06-86.71,56.08-151.07,74.63-34.57,10-90.47,22.06-102,22.06-2.44,0-7-8-21.29-37.28ZM125.1,281.61c-45-5.83-82.79-10.9-84-11.27-2-.65-9.16-24.52-13.19-43.95-1-4.92-2.51-17.94-3.33-29C21,148.26,31.69,114.27,60.36,83.7,108.91,32,212.84,25.69,330.1,67.37c20.58,7.32,28.75,12.41,25,15.58-2.79,2.34-21.75,2.31-54.5-.1C249.36,79.08,210.38,86.2,190.29,103c-30.59,25.61-25.92,81.73,13.53,162.69,4.27,8.76,8.58,17.34,9.56,19.09,2.29,4,.63,7.75-3.35,7.56-1.7-.08-39.92-4.91-84.93-10.75Zm151-44.05c-35.92-6.46-68.22-28.73-78.65-54.22-5-12.24-4.76-28.21.58-37.77,4.83-8.65,17.31-18.65,28.48-22.84,18.6-7,51.17-4.19,74.91,6.41,22.53,10.05,42.5,27.74,49.93,44.18,9.53,21.11,1.59,44.66-18.82,55.91-13.53,7.44-39.83,11.32-56.44,8.34h0Z"/></svg>